<svg width="8" height="14" viewBox="0 0 8 14" fill="none" xmlns="http://www.w3.org/2000/svg">
<path opacity="0.25" d="M3.983 12.175C3.58167 12.175 3.171 12.1423 2.751 12.077C2.33567 12.0117 1.94833 11.9253 1.589 11.818C1.23433 11.7107 0.942667 11.601 0.714 11.489L0.882 9.641C1.19 9.80433 1.512 9.94667 1.848 10.068C2.184 10.1847 2.51767 10.2757 2.849 10.341C3.185 10.4017 3.50467 10.432 3.808 10.432C4.11133 10.432 4.375 10.3923 4.599 10.313C4.823 10.2337 4.998 10.1077 5.124 9.935C5.25 9.76233 5.313 9.536 5.313 9.256C5.313 9.004 5.229 8.79633 5.061 8.633C4.89767 8.46967 4.66433 8.32967 4.361 8.213C4.06233 8.09167 3.71233 7.97033 3.311 7.849C2.72767 7.681 2.23067 7.485 1.82 7.261C1.414 7.037 1.10367 6.75 0.889 6.4C0.674333 6.05 0.567 5.60667 0.567 5.07C0.567 4.51 0.688333 4.01767 0.931 3.593C1.17367 3.16367 1.54233 2.82767 2.037 2.585C2.53167 2.34233 3.15467 2.221 3.906 2.221C4.19533 2.221 4.48933 2.23967 4.788 2.277C5.09133 2.31433 5.383 2.36567 5.663 2.431C5.943 2.49633 6.20433 2.56867 6.447 2.648C6.68967 2.72733 6.89967 2.81133 7.077 2.9L6.916 4.776C6.63133 4.59867 6.335 4.454 6.027 4.342C5.719 4.22533 5.418 4.139 5.124 4.083C4.83467 4.027 4.56867 3.999 4.326 3.999C4.06 3.999 3.81733 4.03867 3.598 4.118C3.37867 4.19267 3.20367 4.30933 3.073 4.468C2.947 4.62667 2.884 4.832 2.884 5.084C2.884 5.31267 2.94467 5.50167 3.066 5.651C3.18733 5.79567 3.374 5.924 3.626 6.036C3.88267 6.148 4.214 6.267 4.62 6.393C5.376 6.62167 5.971 6.862 6.405 7.114C6.84367 7.36133 7.15633 7.65767 7.343 8.003C7.52967 8.34367 7.623 8.76367 7.623 9.263C7.623 9.851 7.49467 10.3643 7.238 10.803C6.986 11.237 6.59167 11.5753 6.055 11.818C5.51833 12.056 4.82767 12.175 3.983 12.175ZM3.339 13.918C3.339 13.4233 3.339 12.9473 3.339 12.49C3.339 12.0373 3.339 11.5893 3.339 11.146H4.893C4.893 11.5893 4.893 12.0373 4.893 12.49C4.893 12.9473 4.893 13.4233 4.893 13.918H3.339ZM3.339 3.166C3.339 2.77867 3.339 2.38667 3.339 1.99C3.339 1.58867 3.339 1.178 3.339 0.758H4.893C4.893 1.178 4.893 1.58867 4.893 1.99C4.893 2.38667 4.893 2.77867 4.893 3.166H3.339Z" fill="black"/>
</svg>
